<?xml version="1.0" encoding="utf-8"?>
<!-- Generator: Adobe Illustrator 27.4.1, SVG Export Plug-In . SVG Version: 6.00 Build 0)  -->
<svg version="1.1" id="Layer_1" xmlns="http://www.w3.org/2000/svg" xmlns:xlink="http://www.w3.org/1999/xlink" x="0px" y="0px"
	 viewBox="0 0 651.5 160.6" style="enable-background:new 0 0 651.5 160.6;" xml:space="preserve">
<style type="text/css">
	.st0{fill:#FFFFFF;}
	.st1{fill:url(#SVGID_1_);}
	.st2{fill:none;stroke:#221F20;stroke-width:0.105;}
	.st3{fill:url(#SVGID_00000073697224973152115510000000365702168304110740_);}
	.st4{fill:url(#SVGID_00000181766912150369765220000000603370333683065474_);}
	.st5{fill:url(#SVGID_00000061435246943388192970000015935841359050279821_);}
	.st6{fill:url(#SVGID_00000160890546882162742220000011075885522351983271_);}
	.st7{fill:url(#SVGID_00000039848609088874104400000003148057718183938478_);}
	.st8{fill:none;stroke:#ADADB0;stroke-width:1.000000e-03;}
	.st9{fill:url(#SVGID_00000096050753316998686520000009629914295831490710_);}
	.st10{fill:url(#SVGID_00000103262637065942031940000015852090223598874785_);}
	.st11{fill:url(#SVGID_00000083803688132369499410000004323235193944730245_);}
	.st12{fill:url(#SVGID_00000161627751245849487730000003375263069263845290_);}
	.st13{fill:url(#SVGID_00000169535866436043522060000014385049711221721269_);}
	.st14{fill:#C5C6C5;stroke:#221F20;stroke-width:0.105;}
	.st15{fill:url(#SVGID_00000079463708778091911090000001934680335942568367_);}
	.st16{fill:url(#SVGID_00000034788920635063361480000004138237809123387312_);}
	.st17{fill:url(#SVGID_00000149351255350699656440000014001317647534014353_);}
	.st18{fill:url(#SVGID_00000101061494063896386780000014927119691726879410_);}
	.st19{fill:url(#SVGID_00000108996443330944760390000008750836843189345940_);}
	.st20{fill:url(#SVGID_00000117675942361176403960000012025581351922981301_);}
	.st21{fill:url(#SVGID_00000140008117529730594740000006878041283338204293_);}
	.st22{fill:url(#SVGID_00000052809996684830077130000004745361187502651060_);}
	.st23{fill:url(#SVGID_00000121256146938249308210000005673384182931200949_);}
	.st24{fill:url(#SVGID_00000071555431292078548050000014017641906458800574_);}
	.st25{opacity:0.56;}
	.st26{fill:url(#SVGID_00000156546032287080762970000013615408957548737430_);}
	.st27{fill:url(#SVGID_00000161631044476346464320000004503891796940328848_);}
	
		.Diamond_x0020_Ray{fill:url(#SVGID_00000083803618088506018430000017211457331065774498_);stroke:#ADADB0;stroke-width:1.000000e-03;}
	
		.Illuminating_x0020_Aqua{fill:url(#SVGID_00000016756569913346689090000007716195817948845446_);stroke:#FFFFFF;stroke-width:0.25;stroke-miterlimit:1;}
	
		.Arched_x0020_Royal_x0020_Blue{fill:url(#SVGID_00000054265260901496205300000009420248980154895030_);stroke:#FFFFFF;stroke-width:9.260000e-02;stroke-miterlimit:1;}
</style>
<symbol  id="Deleted_Symbol_2">
</symbol>
<symbol  id="Heirloom_Round_Diamond_1" viewBox="-40.3 -40.3 80.6 80.6">
	<g>
		<polygon class="st0" points="-0.6,38.4 10.4,26.7 26.4,27.2 25.9,11.2 37.6,0.2 25.9,-10.7 26.4,-26.7 10.4,-26.3 -0.6,-37.9 
			-11.5,-26.3 -27.6,-26.7 -27.1,-10.7 -38.7,0.2 -27.1,11.2 -27.6,27.2 -11.5,26.7 		"/>
		
			<radialGradient id="SVGID_1_" cx="-1.1942" cy="0.7052" r="38.1517" gradientTransform="matrix(0.9999 0 0 0.9999 0.6169 -0.4766)" gradientUnits="userSpaceOnUse">
			<stop  offset="0" style="stop-color:#848FA0;stop-opacity:0.63"/>
			<stop  offset="0.7056" style="stop-color:#FFFFFF"/>
			<stop  offset="1" style="stop-color:#DADCE2;stop-opacity:0.54"/>
		</radialGradient>
		<polygon class="st1" points="-0.6,38.4 10.4,26.7 26.4,27.2 25.9,11.2 37.6,0.2 25.9,-10.7 26.4,-26.7 10.4,-26.3 -0.6,-37.9 
			-11.5,-26.3 -27.6,-26.7 -27.1,-10.7 -38.7,0.2 -27.1,11.2 -27.6,27.2 -11.5,26.7 		"/>
		<polygon class="st2" points="-0.6,38.4 10.4,26.7 26.4,27.2 25.9,11.2 37.6,0.2 25.9,-10.7 26.4,-26.7 10.4,-26.3 -0.6,-37.9 
			-11.5,-26.3 -27.6,-26.7 -27.1,-10.7 -38.7,0.2 -27.1,11.2 -27.6,27.2 -11.5,26.7 		"/>
	</g>
	<g>
		
			<linearGradient id="SVGID_00000004524696796979723740000007097497679538965932_" gradientUnits="userSpaceOnUse" x1="-40.2842" y1="0" x2="40.2842" y2="0">
			<stop  offset="0" style="stop-color:#C5B9B9"/>
			<stop  offset="0.1435" style="stop-color:#C9BFBE"/>
			<stop  offset="0.3321" style="stop-color:#D5CECD"/>
			<stop  offset="0.5112" style="stop-color:#E6E5E2"/>
			<stop  offset="0.61" style="stop-color:#C5C3C1"/>
			<stop  offset="0.8159" style="stop-color:#878183"/>
			<stop  offset="1" style="stop-color:#565356"/>
		</linearGradient>
		<path style="fill:url(#SVGID_00000004524696796979723740000007097497679538965932_);" d="M40.3,0c0-22.3-18-40.3-40.3-40.3
			c-22.2,0-40.3,18-40.3,40.3c0,22.2,18,40.3,40.3,40.3C22.2,40.3,40.3,22.2,40.3,0z"/>
		
			<linearGradient id="SVGID_00000007389356230235471360000009032453165322364826_" gradientUnits="userSpaceOnUse" x1="0" y1="-40.2842" x2="4.933392e-15" y2="40.2842">
			<stop  offset="0.3278" style="stop-color:#B0DCF6;stop-opacity:0"/>
			<stop  offset="0.3658" style="stop-color:#B6DEF6;stop-opacity:0.1553"/>
			<stop  offset="0.4158" style="stop-color:#C8E5F8;stop-opacity:0.3599"/>
			<stop  offset="0.4724" style="stop-color:#E4F2FC;stop-opacity:0.5911"/>
			<stop  offset="0.5112" style="stop-color:#FFFFFF;stop-opacity:0.75"/>
			<stop  offset="0.5673" style="stop-color:#E4F2FC;stop-opacity:0.4796"/>
			<stop  offset="0.6667" style="stop-color:#B0DCF6;stop-opacity:0"/>
		</linearGradient>
		<path style="fill:url(#SVGID_00000007389356230235471360000009032453165322364826_);" d="M40.3,0c0-22.3-18-40.3-40.3-40.3
			c-22.2,0-40.3,18-40.3,40.3c0,22.2,18,40.3,40.3,40.3C22.2,40.3,40.3,22.2,40.3,0z"/>
		
			<linearGradient id="SVGID_00000087383430237920842870000003574029906164179856_" gradientUnits="userSpaceOnUse" x1="-28.4861" y1="-28.4861" x2="28.4854" y2="28.4854">
			<stop  offset="0.3278" style="stop-color:#B0DCF6;stop-opacity:0"/>
			<stop  offset="0.3658" style="stop-color:#B6DEF6;stop-opacity:0.1553"/>
			<stop  offset="0.4158" style="stop-color:#C8E5F8;stop-opacity:0.3599"/>
			<stop  offset="0.4724" style="stop-color:#E4F2FC;stop-opacity:0.5911"/>
			<stop  offset="0.5112" style="stop-color:#FFFFFF;stop-opacity:0.75"/>
			<stop  offset="0.5673" style="stop-color:#E4F2FC;stop-opacity:0.4796"/>
			<stop  offset="0.6667" style="stop-color:#B0DCF6;stop-opacity:0"/>
		</linearGradient>
		<path style="fill:url(#SVGID_00000087383430237920842870000003574029906164179856_);" d="M40.3,0c0-22.3-18-40.3-40.3-40.3
			c-22.2,0-40.3,18-40.3,40.3c0,22.2,18,40.3,40.3,40.3C22.2,40.3,40.3,22.2,40.3,0z"/>
		
			<linearGradient id="SVGID_00000065052841554140327680000005012973888928050851_" gradientUnits="userSpaceOnUse" x1="28.4854" y1="-28.4861" x2="-28.4861" y2="28.4854">
			<stop  offset="0.3278" style="stop-color:#B0DCF6;stop-opacity:0"/>
			<stop  offset="0.3658" style="stop-color:#B6DEF6;stop-opacity:0.1553"/>
			<stop  offset="0.4158" style="stop-color:#C8E5F8;stop-opacity:0.3599"/>
			<stop  offset="0.4724" style="stop-color:#E4F2FC;stop-opacity:0.5911"/>
			<stop  offset="0.5112" style="stop-color:#FFFFFF;stop-opacity:0.75"/>
			<stop  offset="0.5673" style="stop-color:#E4F2FC;stop-opacity:0.4796"/>
			<stop  offset="0.6667" style="stop-color:#B0DCF6;stop-opacity:0"/>
		</linearGradient>
		<path style="fill:url(#SVGID_00000065052841554140327680000005012973888928050851_);" d="M40.3,0c0-22.3-18-40.3-40.3-40.3
			c-22.2,0-40.3,18-40.3,40.3c0,22.2,18,40.3,40.3,40.3C22.2,40.3,40.3,22.2,40.3,0z"/>
		
			<linearGradient id="SVGID_00000042727183662243926530000001067797349496958851_" gradientUnits="userSpaceOnUse" x1="-40.2842" y1="0" x2="40.2842" y2="0">
			<stop  offset="0.35" style="stop-color:#B0DCF6;stop-opacity:0"/>
			<stop  offset="0.3834" style="stop-color:#B6DEF6;stop-opacity:0.1553"/>
			<stop  offset="0.4274" style="stop-color:#C8E5F8;stop-opacity:0.3599"/>
			<stop  offset="0.4771" style="stop-color:#E4F2FC;stop-opacity:0.5911"/>
			<stop  offset="0.5112" style="stop-color:#FFFFFF;stop-opacity:0.75"/>
			<stop  offset="0.5553" style="stop-color:#E4F2FC;stop-opacity:0.4796"/>
			<stop  offset="0.6333" style="stop-color:#B0DCF6;stop-opacity:0"/>
		</linearGradient>
		<path style="fill:url(#SVGID_00000042727183662243926530000001067797349496958851_);" d="M40.3,0c0-22.3-18-40.3-40.3-40.3
			c-22.2,0-40.3,18-40.3,40.3c0,22.2,18,40.3,40.3,40.3C22.2,40.3,40.3,22.2,40.3,0z"/>
		<path class="st8" d="M40.3,0c0-22.3-18-40.3-40.3-40.3c-22.2,0-40.3,18-40.3,40.3c0,22.2,18,40.3,40.3,40.3
			C22.2,40.3,40.3,22.2,40.3,0z"/>
	</g>
	<g>
		
			<linearGradient id="SVGID_00000135657037040555452500000000156296798735832469_" gradientUnits="userSpaceOnUse" x1="-37.2744" y1="-1.4624" x2="37.1689" y2="-1.4624">
			<stop  offset="0" style="stop-color:#C5B9B9"/>
			<stop  offset="0.1435" style="stop-color:#C9BFBE"/>
			<stop  offset="0.3321" style="stop-color:#D5CECD"/>
			<stop  offset="0.5112" style="stop-color:#E6E5E2"/>
			<stop  offset="0.61" style="stop-color:#C5C3C1"/>
			<stop  offset="0.8159" style="stop-color:#878183"/>
			<stop  offset="1" style="stop-color:#565356"/>
		</linearGradient>
		<path style="fill:url(#SVGID_00000135657037040555452500000000156296798735832469_);" d="M10.7,3l0.9,1.9l25.6,10.6
			c-4.1,9.9-12,17.7-21.8,21.8L4.1,10.1l-4.1,11.7l-4.2-11.7l-11.3,27.2c-9.8-4.1-17.7-12-21.8-21.8l25.6-10.6l0.9-1.9l-12.5-4.4
			l12.5-4.4l-5.7-12l11.2,5.3l-10.2-24.6c4.7-2,10-3.1,15.4-3.1s10.7,1.1,15.4,3.1L5.2-12.6l11.2-5.3l-5.7,12l12.5,4.4L10.7,3z"/>
		
			<linearGradient id="SVGID_00000050660700331383647250000009341828801010553525_" gradientUnits="userSpaceOnUse" x1="-5.275000e-02" y1="-40.2168" x2="-5.275000e-02" y2="37.292">
			<stop  offset="0.3278" style="stop-color:#B0DCF6;stop-opacity:0"/>
			<stop  offset="0.3658" style="stop-color:#B6DEF6;stop-opacity:0.1553"/>
			<stop  offset="0.4158" style="stop-color:#C8E5F8;stop-opacity:0.3599"/>
			<stop  offset="0.4724" style="stop-color:#E4F2FC;stop-opacity:0.5911"/>
			<stop  offset="0.5112" style="stop-color:#FFFFFF;stop-opacity:0.75"/>
			<stop  offset="0.5673" style="stop-color:#E4F2FC;stop-opacity:0.4796"/>
			<stop  offset="0.6667" style="stop-color:#B0DCF6;stop-opacity:0"/>
		</linearGradient>
		<path style="fill:url(#SVGID_00000050660700331383647250000009341828801010553525_);" d="M10.7,3l0.9,1.9l25.6,10.6
			c-4.1,9.9-12,17.7-21.8,21.8L4.1,10.1l-4.1,11.7l-4.2-11.7l-11.3,27.2c-9.8-4.1-17.7-12-21.8-21.8l25.6-10.6l0.9-1.9l-12.5-4.4
			l12.5-4.4l-5.7-12l11.2,5.3l-10.2-24.6c4.7-2,10-3.1,15.4-3.1s10.7,1.1,15.4,3.1L5.2-12.6l11.2-5.3l-5.7,12l12.5,4.4L10.7,3z"/>
		
			<linearGradient id="SVGID_00000047022835718081496130000001127304452085556888_" gradientUnits="userSpaceOnUse" x1="-27.4563" y1="-25.1721" x2="27.3462" y2="29.6304">
			<stop  offset="0.3278" style="stop-color:#B0DCF6;stop-opacity:0"/>
			<stop  offset="0.3658" style="stop-color:#B6DEF6;stop-opacity:0.1553"/>
			<stop  offset="0.4158" style="stop-color:#C8E5F8;stop-opacity:0.3599"/>
			<stop  offset="0.4724" style="stop-color:#E4F2FC;stop-opacity:0.5911"/>
			<stop  offset="0.5112" style="stop-color:#FFFFFF;stop-opacity:0.75"/>
			<stop  offset="0.5673" style="stop-color:#E4F2FC;stop-opacity:0.4796"/>
			<stop  offset="0.6667" style="stop-color:#B0DCF6;stop-opacity:0"/>
		</linearGradient>
		<path style="fill:url(#SVGID_00000047022835718081496130000001127304452085556888_);" d="M10.7,3l0.9,1.9l25.6,10.6
			c-4.1,9.9-12,17.7-21.8,21.8L4.1,10.1l-4.1,11.7l-4.2-11.7l-11.3,27.2c-9.8-4.1-17.7-12-21.8-21.8l25.6-10.6l0.9-1.9l-12.5-4.4
			l12.5-4.4l-5.7-12l11.2,5.3l-10.2-24.6c4.7-2,10-3.1,15.4-3.1s10.7,1.1,15.4,3.1L5.2-12.6l11.2-5.3l-5.7,12l12.5,4.4L10.7,3z"/>
		
			<linearGradient id="SVGID_00000070818381336699191110000001529088824166626492_" gradientUnits="userSpaceOnUse" x1="27.3456" y1="-25.1715" x2="-27.4557" y2="29.6298">
			<stop  offset="0.3278" style="stop-color:#B0DCF6;stop-opacity:0"/>
			<stop  offset="0.3658" style="stop-color:#B6DEF6;stop-opacity:0.1553"/>
			<stop  offset="0.4158" style="stop-color:#C8E5F8;stop-opacity:0.3599"/>
			<stop  offset="0.4724" style="stop-color:#E4F2FC;stop-opacity:0.5911"/>
			<stop  offset="0.5112" style="stop-color:#FFFFFF;stop-opacity:0.75"/>
			<stop  offset="0.5673" style="stop-color:#E4F2FC;stop-opacity:0.4796"/>
			<stop  offset="0.6667" style="stop-color:#B0DCF6;stop-opacity:0"/>
		</linearGradient>
		<path style="fill:url(#SVGID_00000070818381336699191110000001529088824166626492_);" d="M10.7,3l0.9,1.9l25.6,10.6
			c-4.1,9.9-12,17.7-21.8,21.8L4.1,10.1l-4.1,11.7l-4.2-11.7l-11.3,27.2c-9.8-4.1-17.7-12-21.8-21.8l25.6-10.6l0.9-1.9l-12.5-4.4
			l12.5-4.4l-5.7-12l11.2,5.3l-10.2-24.6c4.7-2,10-3.1,15.4-3.1s10.7,1.1,15.4,3.1L5.2-12.6l11.2-5.3l-5.7,12l12.5,4.4L10.7,3z"/>
		
			<linearGradient id="SVGID_00000059295765945056807710000003744103678586799504_" gradientUnits="userSpaceOnUse" x1="-37.2744" y1="-1.4624" x2="37.1689" y2="-1.4624">
			<stop  offset="0.35" style="stop-color:#B0DCF6;stop-opacity:0"/>
			<stop  offset="0.3834" style="stop-color:#B6DEF6;stop-opacity:0.1553"/>
			<stop  offset="0.4274" style="stop-color:#C8E5F8;stop-opacity:0.3599"/>
			<stop  offset="0.4771" style="stop-color:#E4F2FC;stop-opacity:0.5911"/>
			<stop  offset="0.5112" style="stop-color:#FFFFFF;stop-opacity:0.75"/>
			<stop  offset="0.5553" style="stop-color:#E4F2FC;stop-opacity:0.4796"/>
			<stop  offset="0.6333" style="stop-color:#B0DCF6;stop-opacity:0"/>
		</linearGradient>
		<path style="fill:url(#SVGID_00000059295765945056807710000003744103678586799504_);" d="M10.7,3l0.9,1.9l25.6,10.6
			c-4.1,9.9-12,17.7-21.8,21.8L4.1,10.1l-4.1,11.7l-4.2-11.7l-11.3,27.2c-9.8-4.1-17.7-12-21.8-21.8l25.6-10.6l0.9-1.9l-12.5-4.4
			l12.5-4.4l-5.7-12l11.2,5.3l-10.2-24.6c4.7-2,10-3.1,15.4-3.1s10.7,1.1,15.4,3.1L5.2-12.6l11.2-5.3l-5.7,12l12.5,4.4L10.7,3z"/>
		<path class="st8" d="M10.7,3l0.9,1.9l25.6,10.6c-4.1,9.9-12,17.7-21.8,21.8L4.1,10.1l-4.1,11.7l-4.2-11.7l-11.3,27.2
			c-9.8-4.1-17.7-12-21.8-21.8l25.6-10.6l0.9-1.9l-12.5-4.4l12.5-4.4l-5.7-12l11.2,5.3l-10.2-24.6c4.7-2,10-3.1,15.4-3.1
			s10.7,1.1,15.4,3.1L5.2-12.6l11.2-5.3l-5.7,12l12.5,4.4L10.7,3z"/>
	</g>
	<polygon class="st14" points="0,0 0,0 0,0 	"/>
	<rect y="0" class="st14" width="0" height="0"/>
	<polygon class="st14" points="0,0 0,0 0,0 	"/>
	<g>
		
			<linearGradient id="SVGID_00000139284297049348002990000016477826948204606647_" gradientUnits="userSpaceOnUse" x1="-40.2842" y1="0" x2="40.2842" y2="0">
			<stop  offset="0" style="stop-color:#C5B9B9"/>
			<stop  offset="0.1435" style="stop-color:#C9BFBE"/>
			<stop  offset="0.3321" style="stop-color:#D5CECD"/>
			<stop  offset="0.5112" style="stop-color:#E6E5E2"/>
			<stop  offset="0.61" style="stop-color:#C5C3C1"/>
			<stop  offset="0.8159" style="stop-color:#878183"/>
			<stop  offset="1" style="stop-color:#565356"/>
		</linearGradient>
		<polygon style="fill:url(#SVGID_00000139284297049348002990000016477826948204606647_);" points="0,40.3 11.5,27.7 28.5,28.5 
			27.6,11.5 40.3,0 27.6,-11.5 28.5,-28.5 11.5,-27.7 0,-40.3 -11.5,-27.6 -28.5,-28.5 -27.6,-11.5 -40.3,0 -27.6,11.5 -28.5,28.5 
			-11.5,27.6 		"/>
		
			<linearGradient id="SVGID_00000029744062095776679610000002113623115458705061_" gradientUnits="userSpaceOnUse" x1="0" y1="-40.2842" x2="4.933392e-15" y2="40.2842">
			<stop  offset="0.3278" style="stop-color:#B0DCF6;stop-opacity:0"/>
			<stop  offset="0.3658" style="stop-color:#B6DEF6;stop-opacity:0.1553"/>
			<stop  offset="0.4158" style="stop-color:#C8E5F8;stop-opacity:0.3599"/>
			<stop  offset="0.4724" style="stop-color:#E4F2FC;stop-opacity:0.5911"/>
			<stop  offset="0.5112" style="stop-color:#FFFFFF;stop-opacity:0.75"/>
			<stop  offset="0.5673" style="stop-color:#E4F2FC;stop-opacity:0.4796"/>
			<stop  offset="0.6667" style="stop-color:#B0DCF6;stop-opacity:0"/>
		</linearGradient>
		<polygon style="fill:url(#SVGID_00000029744062095776679610000002113623115458705061_);" points="0,40.3 11.5,27.7 28.5,28.5 
			27.6,11.5 40.3,0 27.6,-11.5 28.5,-28.5 11.5,-27.7 0,-40.3 -11.5,-27.6 -28.5,-28.5 -27.6,-11.5 -40.3,0 -27.6,11.5 -28.5,28.5 
			-11.5,27.6 		"/>
		
			<linearGradient id="SVGID_00000174596645027052990820000002734647856955285659_" gradientUnits="userSpaceOnUse" x1="-28.4832" y1="-28.4861" x2="28.487" y2="28.4841">
			<stop  offset="0.3278" style="stop-color:#B0DCF6;stop-opacity:0"/>
			<stop  offset="0.3658" style="stop-color:#B6DEF6;stop-opacity:0.1553"/>
			<stop  offset="0.4158" style="stop-color:#C8E5F8;stop-opacity:0.3599"/>
			<stop  offset="0.4724" style="stop-color:#E4F2FC;stop-opacity:0.5911"/>
			<stop  offset="0.5112" style="stop-color:#FFFFFF;stop-opacity:0.75"/>
			<stop  offset="0.5673" style="stop-color:#E4F2FC;stop-opacity:0.4796"/>
			<stop  offset="0.6667" style="stop-color:#B0DCF6;stop-opacity:0"/>
		</linearGradient>
		<polygon style="fill:url(#SVGID_00000174596645027052990820000002734647856955285659_);" points="0,40.3 11.5,27.7 28.5,28.5 
			27.6,11.5 40.3,0 27.6,-11.5 28.5,-28.5 11.5,-27.7 0,-40.3 -11.5,-27.6 -28.5,-28.5 -27.6,-11.5 -40.3,0 -27.6,11.5 -28.5,28.5 
			-11.5,27.6 		"/>
		
			<linearGradient id="SVGID_00000118372443991639945740000013116434668567572124_" gradientUnits="userSpaceOnUse" x1="28.487" y1="-28.4861" x2="-28.4832" y2="28.4841">
			<stop  offset="0.3278" style="stop-color:#B0DCF6;stop-opacity:0"/>
			<stop  offset="0.3658" style="stop-color:#B6DEF6;stop-opacity:0.1553"/>
			<stop  offset="0.4158" style="stop-color:#C8E5F8;stop-opacity:0.3599"/>
			<stop  offset="0.4724" style="stop-color:#E4F2FC;stop-opacity:0.5911"/>
			<stop  offset="0.5112" style="stop-color:#FFFFFF;stop-opacity:0.75"/>
			<stop  offset="0.5673" style="stop-color:#E4F2FC;stop-opacity:0.4796"/>
			<stop  offset="0.6667" style="stop-color:#B0DCF6;stop-opacity:0"/>
		</linearGradient>
		<polygon style="fill:url(#SVGID_00000118372443991639945740000013116434668567572124_);" points="0,40.3 11.5,27.7 28.5,28.5 
			27.6,11.5 40.3,0 27.6,-11.5 28.5,-28.5 11.5,-27.7 0,-40.3 -11.5,-27.6 -28.5,-28.5 -27.6,-11.5 -40.3,0 -27.6,11.5 -28.5,28.5 
			-11.5,27.6 		"/>
		
			<linearGradient id="SVGID_00000178886388987105632370000016272730801414028689_" gradientUnits="userSpaceOnUse" x1="-40.2842" y1="0" x2="40.2842" y2="0">
			<stop  offset="0.35" style="stop-color:#B0DCF6;stop-opacity:0"/>
			<stop  offset="0.3834" style="stop-color:#B6DEF6;stop-opacity:0.1553"/>
			<stop  offset="0.4274" style="stop-color:#C8E5F8;stop-opacity:0.3599"/>
			<stop  offset="0.4771" style="stop-color:#E4F2FC;stop-opacity:0.5911"/>
			<stop  offset="0.5112" style="stop-color:#FFFFFF;stop-opacity:0.75"/>
			<stop  offset="0.5553" style="stop-color:#E4F2FC;stop-opacity:0.4796"/>
			<stop  offset="0.6333" style="stop-color:#B0DCF6;stop-opacity:0"/>
		</linearGradient>
		<polygon style="fill:url(#SVGID_00000178886388987105632370000016272730801414028689_);" points="0,40.3 11.5,27.7 28.5,28.5 
			27.6,11.5 40.3,0 27.6,-11.5 28.5,-28.5 11.5,-27.7 0,-40.3 -11.5,-27.6 -28.5,-28.5 -27.6,-11.5 -40.3,0 -27.6,11.5 -28.5,28.5 
			-11.5,27.6 		"/>
		<polygon class="st8" points="0,40.3 11.5,27.7 28.5,28.5 27.6,11.5 40.3,0 27.6,-11.5 28.5,-28.5 11.5,-27.7 0,-40.3 -11.5,-27.6 
			-28.5,-28.5 -27.6,-11.5 -40.3,0 -27.6,11.5 -28.5,28.5 -11.5,27.6 		"/>
	</g>
	<g>
		
			<linearGradient id="SVGID_00000060731442759938916670000003254073641995463595_" gradientUnits="userSpaceOnUse" x1="-27.6484" y1="5.000000e-04" x2="27.6489" y2="5.000000e-04">
			<stop  offset="0" style="stop-color:#C5B9B9"/>
			<stop  offset="0.1435" style="stop-color:#C9BFBE"/>
			<stop  offset="0.3321" style="stop-color:#D5CECD"/>
			<stop  offset="0.5112" style="stop-color:#E6E5E2"/>
			<stop  offset="0.61" style="stop-color:#C5C3C1"/>
			<stop  offset="0.8159" style="stop-color:#878183"/>
			<stop  offset="1" style="stop-color:#565356"/>
		</linearGradient>
		<polygon style="fill:url(#SVGID_00000060731442759938916670000003254073641995463595_);" points="11.5,27.7 15.6,15.6 27.6,11.5 
			22.1,0 27.6,-11.5 15.6,-15.6 11.5,-27.6 0,-22 -11.5,-27.6 -15.6,-15.6 -27.6,-11.5 -22.1,0 -27.6,11.5 -15.6,15.6 -11.5,27.6 
			0,22.1 		"/>
		
			<linearGradient id="SVGID_00000183935345225653023320000003452907675014246317_" gradientUnits="userSpaceOnUse" x1="2.500000e-04" y1="-27.6494" x2="2.500000e-04" y2="27.6504">
			<stop  offset="0.3278" style="stop-color:#B0DCF6;stop-opacity:0"/>
			<stop  offset="0.3658" style="stop-color:#B6DEF6;stop-opacity:0.1553"/>
			<stop  offset="0.4158" style="stop-color:#C8E5F8;stop-opacity:0.3599"/>
			<stop  offset="0.4724" style="stop-color:#E4F2FC;stop-opacity:0.5911"/>
			<stop  offset="0.5112" style="stop-color:#FFFFFF;stop-opacity:0.75"/>
			<stop  offset="0.5673" style="stop-color:#E4F2FC;stop-opacity:0.4796"/>
			<stop  offset="0.6667" style="stop-color:#B0DCF6;stop-opacity:0"/>
		</linearGradient>
		<polygon style="fill:url(#SVGID_00000183935345225653023320000003452907675014246317_);" points="11.5,27.7 15.6,15.6 27.6,11.5 
			22.1,0 27.6,-11.5 15.6,-15.6 11.5,-27.6 0,-22 -11.5,-27.6 -15.6,-15.6 -27.6,-11.5 -22.1,0 -27.6,11.5 -15.6,15.6 -11.5,27.6 
			0,22.1 		"/>
		
			<linearGradient id="SVGID_00000118373451910855760620000001450466658150048667_" gradientUnits="userSpaceOnUse" x1="-19.5503" y1="-19.5503" x2="19.5513" y2="19.5513">
			<stop  offset="0.3278" style="stop-color:#B0DCF6;stop-opacity:0"/>
			<stop  offset="0.3658" style="stop-color:#B6DEF6;stop-opacity:0.1553"/>
			<stop  offset="0.4158" style="stop-color:#C8E5F8;stop-opacity:0.3599"/>
			<stop  offset="0.4724" style="stop-color:#E4F2FC;stop-opacity:0.5911"/>
			<stop  offset="0.5112" style="stop-color:#FFFFFF;stop-opacity:0.75"/>
			<stop  offset="0.5673" style="stop-color:#E4F2FC;stop-opacity:0.4796"/>
			<stop  offset="0.6667" style="stop-color:#B0DCF6;stop-opacity:0"/>
		</linearGradient>
		<polygon style="fill:url(#SVGID_00000118373451910855760620000001450466658150048667_);" points="11.5,27.7 15.6,15.6 27.6,11.5 
			22.1,0 27.6,-11.5 15.6,-15.6 11.5,-27.6 0,-22 -11.5,-27.6 -15.6,-15.6 -27.6,-11.5 -22.1,0 -27.6,11.5 -15.6,15.6 -11.5,27.6 
			0,22.1 		"/>
		
			<linearGradient id="SVGID_00000074432649960828151710000006870409693527595164_" gradientUnits="userSpaceOnUse" x1="19.5512" y1="-19.5503" x2="-19.5503" y2="19.5512">
			<stop  offset="0.3278" style="stop-color:#B0DCF6;stop-opacity:0"/>
			<stop  offset="0.3658" style="stop-color:#B6DEF6;stop-opacity:0.1553"/>
			<stop  offset="0.4158" style="stop-color:#C8E5F8;stop-opacity:0.3599"/>
			<stop  offset="0.4724" style="stop-color:#E4F2FC;stop-opacity:0.5911"/>
			<stop  offset="0.5112" style="stop-color:#FFFFFF;stop-opacity:0.75"/>
			<stop  offset="0.5673" style="stop-color:#E4F2FC;stop-opacity:0.4796"/>
			<stop  offset="0.6667" style="stop-color:#B0DCF6;stop-opacity:0"/>
		</linearGradient>
		<polygon style="fill:url(#SVGID_00000074432649960828151710000006870409693527595164_);" points="11.5,27.7 15.6,15.6 27.6,11.5 
			22.1,0 27.6,-11.5 15.6,-15.6 11.5,-27.6 0,-22 -11.5,-27.6 -15.6,-15.6 -27.6,-11.5 -22.1,0 -27.6,11.5 -15.6,15.6 -11.5,27.6 
			0,22.1 		"/>
		
			<linearGradient id="SVGID_00000142896844587351921810000009052401945012075951_" gradientUnits="userSpaceOnUse" x1="-27.6484" y1="5.000000e-04" x2="27.6489" y2="5.000000e-04">
			<stop  offset="0.35" style="stop-color:#B0DCF6;stop-opacity:0"/>
			<stop  offset="0.3834" style="stop-color:#B6DEF6;stop-opacity:0.1553"/>
			<stop  offset="0.4274" style="stop-color:#C8E5F8;stop-opacity:0.3599"/>
			<stop  offset="0.4771" style="stop-color:#E4F2FC;stop-opacity:0.5911"/>
			<stop  offset="0.5112" style="stop-color:#FFFFFF;stop-opacity:0.75"/>
			<stop  offset="0.5553" style="stop-color:#E4F2FC;stop-opacity:0.4796"/>
			<stop  offset="0.6333" style="stop-color:#B0DCF6;stop-opacity:0"/>
		</linearGradient>
		<polygon style="fill:url(#SVGID_00000142896844587351921810000009052401945012075951_);" points="11.5,27.7 15.6,15.6 27.6,11.5 
			22.1,0 27.6,-11.5 15.6,-15.6 11.5,-27.6 0,-22 -11.5,-27.6 -15.6,-15.6 -27.6,-11.5 -22.1,0 -27.6,11.5 -15.6,15.6 -11.5,27.6 
			0,22.1 		"/>
		<polygon class="st8" points="11.5,27.7 15.6,15.6 27.6,11.5 22.1,0 27.6,-11.5 15.6,-15.6 11.5,-27.6 0,-22 -11.5,-27.6 
			-15.6,-15.6 -27.6,-11.5 -22.1,0 -27.6,11.5 -15.6,15.6 -11.5,27.6 0,22.1 		"/>
	</g>
	<g class="st25">
		
			<linearGradient id="SVGID_00000125574689091415079840000018246462523937786558_" gradientUnits="userSpaceOnUse" x1="-23.2481" y1="0.4771" x2="20.8598" y2="0.4771" gradientTransform="matrix(0.9999 0 0 0.9999 0.6169 -0.4766)">
			<stop  offset="0" style="stop-color:#C5B9B9"/>
			<stop  offset="0.1395" style="stop-color:#C9BFBE;stop-opacity:0.7194"/>
			<stop  offset="0.3229" style="stop-color:#D5CECD;stop-opacity:0.3505"/>
			<stop  offset="0.4971" style="stop-color:#E6E5E2;stop-opacity:0"/>
			<stop  offset="0.5987" style="stop-color:#C5C3C1;stop-opacity:0.202"/>
			<stop  offset="0.8106" style="stop-color:#878183;stop-opacity:0.6233"/>
			<stop  offset="1" style="stop-color:#565356"/>
		</linearGradient>
		<polygon style="fill:url(#SVGID_00000125574689091415079840000018246462523937786558_);" points="15,15.6 21.5,0 15,-15.6 
			-0.6,-22 -16.2,-15.6 -22.6,0 -16.2,15.6 -0.6,22.1 		"/>
		
			<radialGradient id="SVGID_00000035495616504239128780000002147581480580692156_" cx="-1.1942" cy="0.4771" r="22.0532" gradientTransform="matrix(0.9999 0 0 0.9999 0.6169 -0.4766)" gradientUnits="userSpaceOnUse">
			<stop  offset="0" style="stop-color:#848FA0;stop-opacity:0.63"/>
			<stop  offset="0.7056" style="stop-color:#FFFFFF"/>
			<stop  offset="1" style="stop-color:#DADCE2;stop-opacity:0.54"/>
		</radialGradient>
		<polygon style="fill:url(#SVGID_00000035495616504239128780000002147581480580692156_);" points="15,15.6 21.5,0 15,-15.6 
			-0.6,-22 -16.2,-15.6 -22.6,0 -16.2,15.6 -0.6,22.1 		"/>
		<polygon class="st2" points="15,15.6 21.5,0 15,-15.6 -0.6,-22 -16.2,-15.6 -22.6,0 -16.2,15.6 -0.6,22.1 		"/>
	</g>
</symbol>
<linearGradient id="SVGID_00000031207718217801429290000017290149132324958102_" gradientUnits="userSpaceOnUse" x1="-70.2515" y1="-225.7007" x2="-69.2515" y2="-225.7007">
	<stop  offset="0" style="stop-color:#C5B9B9"/>
	<stop  offset="0.1435" style="stop-color:#C9BFBE"/>
	<stop  offset="0.3321" style="stop-color:#D5CECD"/>
	<stop  offset="0.5112" style="stop-color:#E6E5E2"/>
	<stop  offset="0.61" style="stop-color:#C5C3C1"/>
	<stop  offset="0.8159" style="stop-color:#878183"/>
	<stop  offset="1" style="stop-color:#565356"/>
</linearGradient>
<linearGradient id="SVGID_00000067938359094572135700000007664841217428748165_" gradientUnits="userSpaceOnUse" x1="-70.2515" y1="-225.7007" x2="-70.2515" y2="-226.7007">
	<stop  offset="0" style="stop-color:#4362AD"/>
	<stop  offset="0.618" style="stop-color:#4667B0"/>
	<stop  offset="0.6292" style="stop-color:#4C66B0"/>
	<stop  offset="0.9831" style="stop-color:#52C8E8"/>
</linearGradient>
<linearGradient id="SVGID_00000055679347087340983420000014389356365693329851_" gradientUnits="userSpaceOnUse" x1="-70.2515" y1="-225.7007" x2="-70.2515" y2="-226.7007">
	<stop  offset="0" style="stop-color:#2D489E"/>
	<stop  offset="0.2111" style="stop-color:#273989"/>
	<stop  offset="0.4056" style="stop-color:#233E99"/>
	<stop  offset="0.9831" style="stop-color:#4581C3"/>
</linearGradient>
<path d="M21.9,140.6l0.4,3.3l-20.6,2.5l-1.5-12.6l2.8-0.3l1.1,9.3L10,142l-1.1-8.8l2.8-0.3l1.1,8.8L21.9,140.6z M20.6,123.6L0,121.9
	l0.5-6.4c0.4-5,3.4-7.5,6.8-7.2c2.4,0.2,4.4,1.8,5.2,4.4l9.5-4.5l-0.3,3.7l-8.8,4l-0.3,3.6l8.4,0.7L20.6,123.6z M7,111.6
	c-2-0.2-3.5,1.1-3.7,4.1L3,118.8l6.7,0.6l0.3-3.1C10.3,113.3,9,111.8,7,111.6z M21.8,97.4l-6.2-1.8l2.5-8.5l-2.7-0.8L13,94.8
	l-5.7-1.7l2.7-9l-2.7-0.8L3.7,95.5l19.9,5.9l3.6-12.2l-2.7-0.8L21.8,97.4z M30.9,68.1c-2.7-1.4-5.3,0-7.9,2.3
	c-2.2,2-3.6,2.6-4.9,1.9c-1.7-0.9-1.8-2.8-1-4.4c0.9-1.8,2-2.8,3.3-4l-2.1-1.9c-1.5,1.3-2.8,2.6-3.8,4.5c-1.7,3.2-1.5,7,2,8.9
	c2.7,1.4,5.5,0,7.9-2.3c2.2-2.2,3.5-2.7,5-1.9c1.9,1,1.9,3.1,1,4.8c-1,1.8-2.1,3-3.4,4.2L29,82c1.6-1.3,2.9-2.9,3.9-4.7
	C34.6,74.1,34.6,70.1,30.9,68.1z M33.2,40.6l6.6,5.7l-6.4,7.5l-6.6-5.7l-2.1,2.5L40.4,64l2.1-2.5l-7-6l6.4-7.5l7,6l2.2-2.5
	L35.3,38.1L33.2,40.6z M66.9,38.5l-10.3-18l5.2-2.9c5.6-3.2,11.5-1.4,14.4,3.7c2.9,5.1,1.4,11.1-4.2,14.3L66.9,38.5z M60.9,21.3
	l7.5,13.2l2.3-1.3c3.9-2.2,4.8-6.5,2.7-10.2c-2-3.6-6.2-5.2-10.2-2.9L60.9,21.3z M84.7,17.6C83.1,11.7,86.3,6.1,92,4.5
	c5.5-1.5,11.3,1.6,13,7.5c1.6,5.8-1.6,11.5-7.3,13.1C92,26.6,86.3,23.4,84.7,17.6z M87.9,16.7c1.2,4.4,5,6.8,9,5.7
	c3.9-1.1,6-5.1,4.8-9.5c-1.1-4.1-5-6.8-9-5.7C88.7,8.3,86.8,12.6,87.9,16.7z M124.7,21.3c2.5,0,4.4-0.3,6.5-1.3l-0.2-8.9l-3.3,0.1
	l0.1,7c-1,0.2-2.1,0.2-3.2,0.3c-4,0.1-7.2-3.2-7.3-7.7c-0.1-4.3,2.9-7.9,6.9-8c2.1,0,3.6,0.2,4.9,0.6l0.7-2.6
	c-1.8-0.7-3.6-0.9-5.6-0.8c-5.9,0.1-10.3,4.8-10.2,10.9C114.2,16.9,118.8,21.4,124.7,21.3z M157.1,16.3l8.5,2.7l0.8-2.7l-8.5-2.7
	l1.8-5.7l9,2.8l0.8-2.7l-12.1-3.8l-6.2,19.8l3.2,1L157.1,16.3z M174.6,21.2c3.1-5.2,9.4-6.8,14.4-3.9c4.9,2.9,6.7,9.3,3.6,14.5
	c-3.1,5.2-9.4,6.8-14.5,3.8C173.2,32.8,171.5,26.5,174.6,21.2z M179.7,33.3c3.5,2.1,7.9,0.8,10.2-3.1c2.2-3.7,1.4-8.3-2.2-10.4
	c-3.6-2.1-8-0.5-10.2,3.1C175.2,26.8,176.1,31.2,179.7,33.3z M199.7,52.6c-4.1-4.2-4-10.7,0.3-14.9c4.3-4.2,10.8-4.1,14.9,0
	c4,4.1,4.1,10.7-0.3,15C210.3,56.9,203.8,56.8,199.7,52.6z M201.7,50.6c2.9,2.9,7.4,2.8,10.7-0.4c3-3,3.5-7.6,0.6-10.6
	c-2.9-3-7.6-2.6-10.6,0.4C199.1,43.1,198.8,47.6,201.7,50.6z M211.7,66.2l17.9-10.4l3,5.1c3.2,5.5,1.5,11.5-3.5,14.5
	c-5.1,3-11.1,1.5-14.3-4L211.7,66.2z M215.8,67.7l1.3,2.3c2.3,3.9,6.5,4.8,10.3,2.6c3.6-2.1,5.1-6.3,2.8-10.2l-1.3-2.3L215.8,67.7z
	 M296,133.7c0,0.8-0.2,1.7-0.7,2.4c-8.2,12.9-20.9,21.4-37.6,21.4c-10.4,0-17.5-3.2-20.6-9.2c-5.4,5.5-11.5,9.2-17.9,9.2
	c-6.7,0-12.2-3.6-13.2-10.4c-5.3,6.2-11.6,10.4-18.2,10.4c-6.8,0-12.1-2.9-14.4-8.5c-6.6,6.6-14.3,11-22.6,11
	c-10.6,0-18.3-7.1-24.7-18.3c-1.2-1.8-2.2-3.6-3.1-5.2c-2.2,0.2-4.2,0.4-6.4,0.4c-8,0-12.3-2.8-13.3-6.3c-3.5,7.4-7,15.4-9,20
	c-3.3,7.1-5.6,9.4-8.8,9.4c-3.5,0-5.6-2.3-5.6-5.7c0-3.9,3.6-10.8,10.2-21.3c1.8-3.5,7.7-15.7,11.6-25.9c4.5-11.7,6.8-19.4,6.8-24.8
	c0-4.1-1.3-7.4-3.6-9.4c-5.1,17.5-21.7,37-36.5,37c-10.2,0-16.2-5.6-16.2-15.2c0-16,22.5-31.9,43-32.9c-0.1-3-0.5-4.4-1-5.2
	c-0.5-0.7-0.7-1.5-0.7-1.9c0-2.3,2.3-4.2,5.1-4.2c4.2,0,8.1,4.2,8.1,12.3v0.5c8.2,3,13.4,9.9,13.4,18.8c0,2.3-0.2,4.7-0.6,6.9
	c11.1-13.1,27.5-27.6,43.2-27.6c12.7,0,21.1,7.1,21.1,20c0,22.6-22.6,45.6-49.2,53.1l3.1,5c4.1,6.7,9,11.3,15.4,11.3
	c6.2,0,13.9-5.6,19.7-13.4c2.8-16.3,19.2-31.5,34.4-31.5c5.1,0,8.7,2.1,11,6.2c1.6-3.8,4.8-6.2,7.7-6.2c2.9,0,4.6,1.7,4.6,4.1
	c0,1.7-1.5,4.5-5,10.2c-4.6,10.2-8.2,18.8-8.2,24.9c0,3.8,1.6,5.4,3.5,5.4c4.4,0,9.9-5.9,14.8-13c1.8-18.4,19.8-31.6,33-31.6
	c9.2,0,14.5,3.8,14.5,10.4c0,9.3-15.1,18.3-35.1,21.2c-0.1,0.8-0.1,1.8-0.1,2.8c0,6.1,4.8,9.3,11.3,9.3c11.4,0,20.9-5.4,27.2-15.2
	c1.6-2.5,3-4.4,5.3-4.4C293.9,129.9,296,131.6,296,133.7z M249.8,129.6c12.9-2.7,21.5-8.2,21.5-14c0-1.6-1.5-2.4-3.5-2.4
	C262,113.2,253.7,119.8,249.8,129.6z M93.9,70.3C79,71.5,63.6,83.3,63.6,95.3c0,3.3,1.9,5.4,5.1,5.4C78.6,100.7,90.3,84.2,93.9,70.3
	z M171.4,81.2c0-6.8-3.6-10.3-9.3-10.3c-11.4,0-28,13.9-39.4,27.7c-6.5,8-10.4,13.7-15.2,23.6l-0.6,1.1c2.1-1.2,4.6-1.9,7.7-1.9
	c6.1,0,10.2,1.6,14,5.4C149.2,121.8,171.4,101.1,171.4,81.2z M214.4,119.2c-0.5-3.6-3.1-5.8-7.7-5.8c-9.4,0-22,15.4-22,29.2
	c0,4.8,2.4,7.3,5.7,7.3c4.8,0,9.8-5.1,14.4-11.9C208.9,131.7,211.7,126.1,214.4,119.2z M317.5,86.2c0-6.7-3-11.1-7.1-11.1
	c-3,0-6.3,2.4-6.3,5.7c0,3.4,2.3,3.8,2.3,9c0,5.7-3.5,11-7.9,13.2c-4.2,1.8-5.1,2.8-5.1,4.8c0,1.6,1.2,2.5,3.1,2.5
	C303,110.3,317.5,99.2,317.5,86.2z M335.3,110.1c2.8,8.7,11.1,18,11.1,29c0,10.4-7.3,18.4-21.1,18.4c-12.9,0-19.7-6.2-19.7-13.2
	c0-2.3,1.8-5.2,5.1-10.2c5-7.5,9-15.4,13.6-25.5V107c0-8,5.2-13.6,9.7-13.6c4.1,0,6.3,2.2,6.3,5.2
	C340.3,100.8,338.6,104.6,335.3,110.1z M335.1,139.7c0-7.5-3.1-13.1-6.1-19.2c-2.7,5.2-5.7,10.4-9.2,15.7c-2.4,3.8-2.9,5.7-2.9,7.4
	c0,2.1,2.4,6.5,8.3,6.5C331.3,150.1,335.1,145.4,335.1,139.7z M531.5,68.5c0,21.1-11.3,47.9-25.5,67.3c-11.9,16.2-23,24.8-35.7,24.8
	c-11.7,0-20.7-8.6-20.7-24.1v-0.6c-11.1,14.8-24,24.7-36.7,24.7c-12.2,0-21.1-8-21.1-20.4c0-20.2,27.3-40.3,27.3-59.1
	c0-3.6-1.2-6.4-3.4-8.3c-5.1,17.5-21.8,37.1-36.7,37.1c-10.2,0-16.2-5.6-16.2-15.2c0-16,22.5-31.9,43-32.9c-0.1-3-0.5-4.4-1-5.2
	c-0.5-0.7-0.7-1.5-0.7-1.9c0-2.3,2.3-4.2,5.1-4.2c4.2,0,8.1,4.2,8.1,12.3v0.4c8.7,2.8,14,9.4,14,18.2c0,20.4-27,40.4-27,59.3
	c0,6.8,5,10.4,10.3,10.4c14.4,0,30.1-22.5,41.4-46c3.6-7.7,8.2-18.8,10.8-24.2c2.9-6.2,5.7-9.2,9-9.2c3.1,0,5.1,2.2,5.1,5.3
	c0,4.1-2.2,11.4-9.2,22.6c-5.8,12.9-10.4,23.1-10.4,37.1c0,9,4.4,14,10.6,14c7,0,13.8-6.3,24.7-22c12.1-17.5,22.4-42.4,22.4-60.1
	c0-3-0.7-3.4-0.7-5.1c0-2.2,2.8-5,6.1-5C528,58.5,531.5,62,531.5,68.5z M404.8,70.2c-14.8,1.2-30.4,12.9-30.4,24.9
	c0,3.3,1.9,5.4,5.1,5.4C389.7,100.6,401.3,84.1,404.8,70.2z M549.7,100.1c5.4,0,8.3-4.6,8.3-7.9c0-3.5-2.4-5.7-6.2-5.7
	c-4.5,0-8.6,3.6-8.6,7.6C543.3,97.9,546.1,100.1,549.7,100.1z M635.2,120.1c-4.6,11.7-7.6,20.4-7.6,24.9c0,3.6,1.5,5.3,3.3,5.3
	c2.1,0,4.2-2.1,5.9-4.7c1.3-2.2,2.8-2.9,4.2-2.9c1.7,0,3.1,1.2,3.1,3c0,4-6.3,11.9-14.5,11.9c-6.7,0-12.2-3.6-13.2-10.4
	c-5.3,6.2-11.6,10.4-18.2,10.4c-6.7,0-12-2.9-14.4-8.4c-5.3,5-11.2,8.4-17.2,8.4c-6.5,0-11.1-2.5-13-7.7c-5.1,4.6-10.6,7.7-16.3,7.7
	c-8.3,0-13.8-4.5-13.8-13.4c0-8.1,4.8-19.7,9.2-28.1c4.1-7.9,7.1-10.3,10.3-10.3c2.8,0,4.6,1.7,4.6,4.1c0,1.9-1.6,5.3-6.2,12.7
	c-4.1,8.6-6.8,15.9-6.8,21.8c0,4.4,1.8,6.1,4.1,6.1c4.4,0,9.8-5.7,14.7-12.7c2.9-13.4,13-34.9,20.7-49.7c3.4-6.5,7.4-10.3,9.9-10.3
	c2.9,0,4.8,1.8,4.8,4.5c0,4.7-7,16.8-14.8,30h-0.1c-3.6,7.9-6.7,15.6-8.5,22c0,0.5-0.2,1-0.4,1.4c-0.9,3.4-1.4,6.3-1.4,8.8
	c0,4,1.8,5.9,4.2,5.9c4.3,0,9.8-5.6,14.7-12.5c2.5-16.5,19.1-32,34.5-32c4.7,0,8.2,1.8,10.5,5.4c3.5-9.2,8.6-21.5,11.4-28
	c1.8-3.9,5.1-5.6,7.7-5.6c2.8,0,4.5,1.7,4.5,3.9c0,2.7-1.8,7.1-6.8,15.4C641.8,103.5,638.1,112.3,635.2,120.1z M624.9,119.2
	c-0.5-3.6-3.1-5.8-7.7-5.8c-9.4,0-22,15.5-22,29.2c0,4.8,2.4,7.3,5.7,7.3c4.8,0,9.8-5.1,14.4-11.9
	C619.3,131.7,622.1,126.1,624.9,119.2z"/>
</svg>
